<svg id="mermaidChart0" width="100%" xmlns="http://www.w3.org/2000/svg" height="100%" viewBox="0 0 4364.859375 953"><style>
  .mermaid .label{font-family:trebuchet ms,verdana,arial;color:#333}.node circle,.node ellipse,.node polygon,.node rect{fill:#cde498;stroke:#13540c;stroke-width:1px}.arrowheadPath{fill:green}.edgePath .path{stroke:green;stroke-width:1.5px}.edgeLabel{background-color:#e8e8e8}.cluster rect{fill:#cdffb2!important;rx:4!important;stroke:#6eaa49!important;stroke-width:1px!important}.cluster text{fill:#333}.actor{stroke:#13540c;fill:#cde498}text.actor{fill:#000;stroke:none}.actor-line{stroke:grey}.messageLine0{marker-end:"url(#arrowhead)"}.messageLine0,.messageLine1{stroke-width:1.5;stroke-dasharray:"2 2";stroke:#333}#arrowhead{fill:#333}#crosshead path{fill:#333!important;stroke:#333!important}.messageText{fill:#333;stroke:none}.labelBox{stroke:#326932;fill:#cde498}.labelText,.loopText{fill:#000;stroke:none}.loopLine{stroke-width:2;stroke-dasharray:"2 2";marker-end:"url(#arrowhead)";stroke:#326932}.note{stroke:#6eaa49;fill:#fff5ad}.noteText{fill:#000;stroke:none;font-family:trebuchet ms,verdana,arial;font-size:14px}.section{stroke:none;opacity:.2}.section0,.section2{fill:#6eaa49}.section1,.section3{fill:#fff;opacity:.2}.sectionTitle0,.sectionTitle1,.sectionTitle2,.sectionTitle3{fill:#333}.sectionTitle{text-anchor:start;font-size:11px;text-height:14px}.grid .tick{stroke:#d3d3d3;opacity:.3;shape-rendering:crispEdges}.grid path{stroke-width:0}.today{fill:none;stroke:red;stroke-width:2px}.task{stroke-width:2}.taskText{text-anchor:middle;font-size:11px}.taskTextOutsideRight{fill:#000;text-anchor:start;font-size:11px}.taskTextOutsideLeft{fill:#000;text-anchor:end;font-size:11px}.taskText0,.taskText1,.taskText2,.taskText3{fill:#fff}.task0,.task1,.task2,.task3{fill:#487e3a;stroke:#13540c}.taskTextOutside0,.taskTextOutside1,.taskTextOutside2,.taskTextOutside3{fill:#000}.active0,.active1,.active2,.active3{fill:#cde498;stroke:#13540c}.activeText0,.activeText1,.activeText2,.activeText3{fill:#000!important}.done0,.done1,.done2,.done3{stroke:grey;fill:#d3d3d3;stroke-width:2}.doneText0,.doneText1,.doneText2,.doneText3{fill:#000!important}.crit0,.crit1,.crit2,.crit3{stroke:#f88;fill:red;stroke-width:2}.activeCrit0,.activeCrit1,.activeCrit2,.activeCrit3{stroke:#f88;fill:#cde498;stroke-width:2}.doneCrit0,.doneCrit1,.doneCrit2,.doneCrit3{stroke:#f88;fill:#d3d3d3;stroke-width:2;cursor:pointer;shape-rendering:crispEdges}.activeCritText0,.activeCritText1,.activeCritText2,.activeCritText3,.doneCritText0,.doneCritText1,.doneCritText2,.doneCritText3{fill:#000!important}.titleText{text-anchor:middle;font-size:18px;fill:#000}g.classGroup text{fill:#13540c;stroke:none;font-family:trebuchet ms,verdana,arial;font-size:10px}g.classGroup rect{fill:#cde498;stroke:#13540c}g.classGroup line{stroke:#13540c;stroke-width:1}svg .classLabel .box{stroke:none;stroke-width:0;fill:#cde498;opacity:.5}svg .classLabel .label{fill:#13540c;font-size:10px}.relation{stroke:#13540c;stroke-width:1;fill:none}#compositionEnd,#compositionStart,.composition{fill:#13540c;stroke:#13540c;stroke-width:1}#aggregationEnd,#aggregationStart,.aggregation{fill:#cde498;stroke:#13540c;stroke-width:1}#dependencyEnd,#dependencyStart,#extensionEnd,#extensionStart{fill:#13540c;stroke:#13540c;stroke-width:1}.node text{font-size:14px}.node text,div.mermaidTooltip{font-family:trebuchet ms,verdana,arial}div.mermaidTooltip{position:absolute;text-align:center;max-width:200px;padding:2px;font-size:12px;background:#cdffb2;border:1px solid #6eaa49;border-radius:2px;pointer-events:none;z-index:100}
svg {
  color: rgb(0, 0, 0);
  font: normal normal 400 normal 16px / normal Menlo, Monaco, "Courier New", monospace;
}
  </style><g></g><defs><marker id="extensionStart" class="extension" refX="0" refY="7" markerWidth="190" markerHeight="240" orient="auto"><path d="M 1,7 L18,13 V 1 Z"></path></marker></defs><defs><marker id="extensionEnd" refX="19" refY="7" markerWidth="20" markerHeight="28" orient="auto"><path d="M 1,1 V 13 L18,7 Z"></path></marker></defs><defs><marker id="compositionStart" class="extension" refX="0" refY="7" markerWidth="190" markerHeight="240" orient="auto"><path d="M 18,7 L9,13 L1,7 L9,1 Z"></path></marker></defs><defs><marker id="compositionEnd" refX="19" refY="7" markerWidth="20" markerHeight="28" orient="auto"><path d="M 18,7 L9,13 L1,7 L9,1 Z"></path></marker></defs><defs><marker id="aggregationStart" class="extension" refX="0" refY="7" markerWidth="190" markerHeight="240" orient="auto"><path d="M 18,7 L9,13 L1,7 L9,1 Z"></path></marker></defs><defs><marker id="aggregationEnd" refX="19" refY="7" markerWidth="20" markerHeight="28" orient="auto"><path d="M 18,7 L9,13 L1,7 L9,1 Z"></path></marker></defs><defs><marker id="dependencyStart" class="extension" refX="0" refY="7" markerWidth="190" markerHeight="240" orient="auto"><path d="M 5,7 L9,13 L1,7 L9,1 Z"></path></marker></defs><defs><marker id="dependencyEnd" refX="19" refY="7" markerWidth="20" markerHeight="28" orient="auto"><path d="M 18,7 L9,13 L14,7 L9,1 Z"></path></marker></defs><g id="classId0" class="classGroup" transform="translate(377.43359375,218 )"><rect x="0" y="0" width="543.078125" height="69"></rect><text x="5" y="15">Response</text><line x1="0" y1="28" y2="28" x2="543.078125"></line><text x="5" y="38" fill="white" class="classText"><tspan x="5">Array&lt;contractualrulescontractualrule&gt; contractualRules</tspan><tspan x="5" dy="10">string webSearchUrl</tspan></text><line x1="0" y1="61" y2="61" x2="543.078125"></line><text x="5" y="76" fill="white" class="classText"></text></g><g id="classId1" class="classGroup" transform="translate(102.01171875,496 )"><rect x="0" y="0" width="255.03125" height="79"></rect><text x="5" y="15">SearchResponse</text><line x1="0" y1="28" y2="28" x2="255.03125"></line><text x="5" y="38" fill="white" class="classText"><tspan x="5">QueryContext queryContext</tspan><tspan x="5" dy="10">Entities entities</tspan><tspan x="5" dy="10">Places places</tspan></text><line x1="0" y1="71" y2="71" x2="255.03125"></line><text x="5" y="86" fill="white" class="classText"></text></g><g id="classId2" class="classGroup" transform="translate(583.86328125,109 )"><rect x="0" y="0" width="130.21875" height="59"></rect><text x="5" y="15">Identifiable</text><line x1="0" y1="28" y2="28" x2="130.21875"></line><text x="5" y="38" fill="white" class="classText"><tspan x="5">string id</tspan></text><line x1="0" y1="51" y2="51" x2="130.21875"></line><text x="5" y="66" fill="white" class="classText"></text></g><g id="classId3" class="classGroup" transform="translate(407.04296875,506 )"><rect x="0" y="0" width="255.03125" height="59"></rect><text x="5" y="15">SearchResultsAnswer</text><line x1="0" y1="28" y2="28" x2="255.03125"></line><text x="5" y="38" fill="white" class="classText"><tspan x="5">QueryContext queryContext</tspan></text><line x1="0" y1="51" y2="51" x2="255.03125"></line><text x="5" y="66" fill="white" class="classText"></text></g><g id="classId4" class="classGroup" transform="translate(0,640 )"><rect x="0" y="0" width="207.03125" height="69"></rect><text x="5" y="15">Entities</text><line x1="0" y1="28" y2="28" x2="207.03125"></line><text x="5" y="38" fill="white" class="classText"><tspan x="5">string queryScenario</tspan><tspan x="5" dy="10">Array&lt;thing&gt; value</tspan></text><line x1="0" y1="61" y2="61" x2="207.03125"></line><text x="5" y="76" fill="white" class="classText"></text></g><g id="classId5" class="classGroup" transform="translate(610.46875,645 )"><rect x="0" y="0" width="187.828125" height="59"></rect><text x="5" y="15">Places</text><line x1="0" y1="28" y2="28" x2="187.828125"></line><text x="5" y="38" fill="white" class="classText"><tspan x="5">Array&lt;thing&gt; value</tspan></text><line x1="0" y1="51" y2="51" x2="187.828125"></line><text x="5" y="66" fill="white" class="classText"></text></g><g id="classId6" class="classGroup" transform="translate(498.25390625,371 )"><rect x="0" y="0" width="72.609375" height="41"></rect><text x="5" y="15">Answer</text><line x1="0" y1="28" y2="28" x2="72.609375"></line><text x="5" y="38" fill="white" class="classText"></text><line x1="0" y1="33" y2="33" x2="72.609375"></line><text x="5" y="48" fill="white" class="classText"></text></g><g id="classId7" class="classGroup" transform="translate(516.65234375,0 )"><rect x="0" y="0" width="264.640625" height="59"></rect><text x="5" y="15">ResponseBase</text><line x1="0" y1="28" y2="28" x2="264.640625"></line><text x="5" y="38" fill="white" class="classText"><tspan x="5">string _type discriminator</tspan></text><line x1="0" y1="51" y2="51" x2="264.640625"></line><text x="5" y="66" fill="white" class="classText"></text></g><g id="classId8" class="classGroup" transform="translate(620.86328125,362 )"><rect x="0" y="0" width="197.421875" height="59"></rect><text x="5" y="15">ErrorResponse</text><line x1="0" y1="28" y2="28" x2="197.421875"></line><text x="5" y="38" fill="white" class="classText"><tspan x="5">Array&lt;error&gt; errors</tspan></text><line x1="0" y1="51" y2="51" x2="197.421875"></line><text x="5" y="66" fill="white" class="classText"></text></g><g id="classId9" class="classGroup" transform="translate(1155.26171875,337 )"><rect x="0" y="0" width="523.875" height="109"></rect><text x="5" y="15">Thing</text><line x1="0" y1="28" y2="28" x2="523.875"></line><text x="5" y="38" fill="white" class="classText"><tspan x="5">string name</tspan><tspan x="5" dy="10">string url</tspan><tspan x="5" dy="10">ImageObject image</tspan><tspan x="5" dy="10">string description</tspan><tspan x="5" dy="10">EntitiesEntityPresentationInfo entityPresentationInfo</tspan><tspan x="5" dy="10">string bingId</tspan></text><line x1="0" y1="101" y2="101" x2="523.875"></line><text x="5" y="116" fill="white" class="classText"></text></g><g id="classId10" class="classGroup" transform="translate(1174.5703125,630 )"><rect x="0" y="0" width="187.828125" height="89"></rect><text x="5" y="15">MediaObject</text><line x1="0" y1="28" y2="28" x2="187.828125"></line><text x="5" y="38" fill="white" class="classText"><tspan x="5">string contentUrl</tspan><tspan x="5" dy="10">string hostPageUrl</tspan><tspan x="5" dy="10">width</tspan><tspan x="5" dy="10">height</tspan></text><line x1="0" y1="81" y2="81" x2="187.828125"></line><text x="5" y="96" fill="white" class="classText"></text></g><g id="classId11" class="classGroup" transform="translate(1468.703125,824 )"><rect x="0" y="0" width="216.625" height="59"></rect><text x="5" y="15">ImageObject</text><line x1="0" y1="28" y2="28" x2="216.625"></line><text x="5" y="38" fill="white" class="classText"><tspan x="5">ImageObject thumbnail</tspan></text><line x1="0" y1="51" y2="51" x2="216.625"></line><text x="5" y="66" fill="white" class="classText"></text></g><g id="classId12" class="classGroup" transform="translate(872.09765625,640 )"><rect x="0" y="0" width="216.625" height="69"></rect><text x="5" y="15">Place</text><line x1="0" y1="28" y2="28" x2="216.625"></line><text x="5" y="38" fill="white" class="classText"><tspan x="5">PostalAddress address</tspan><tspan x="5" dy="10">string telephone</tspan></text><line x1="0" y1="61" y2="61" x2="216.625"></line><text x="5" y="76" fill="white" class="classText"></text></g><g id="classId13" class="classGroup" transform="translate(1015.41015625,515 )"><rect x="0" y="0" width="130.609375" height="41"></rect><text x="5" y="15">Organization</text><line x1="0" y1="28" y2="28" x2="130.609375"></line><text x="5" y="38" fill="white" class="classText"></text><line x1="0" y1="33" y2="33" x2="130.609375"></line><text x="5" y="48" fill="white" class="classText"></text></g><g id="classId14" class="classGroup" transform="translate(1233.63671875,496 )"><rect x="0" y="0" width="216.625" height="79"></rect><text x="5" y="15">CreativeWork</text><line x1="0" y1="28" y2="28" x2="216.625"></line><text x="5" y="38" fill="white" class="classText"><tspan x="5">string thumbnailUrl</tspan><tspan x="5" dy="10">Array&lt;thing&gt; provider</tspan><tspan x="5" dy="10">string text</tspan></text><line x1="0" y1="71" y2="71" x2="216.625"></line><text x="5" y="86" fill="white" class="classText"></text></g><g id="classId15" class="classGroup" transform="translate(1582.0078125,515 )"><rect x="0" y="0" width="111.015625" height="41"></rect><text x="5" y="15">Intangible</text><line x1="0" y1="28" y2="28" x2="111.015625"></line><text x="5" y="38" fill="white" class="classText"></text><line x1="0" y1="33" y2="33" x2="111.015625"></line><text x="5" y="48" fill="white" class="classText"></text></g><g id="classId16" class="classGroup" transform="translate(2754.89453125,218 )"><rect x="0" y="0" width="389.453125" height="69"></rect><text x="5" y="15">ContractualRulesContractualRule</text><line x1="0" y1="28" y2="28" x2="389.453125"></line><text x="5" y="38" fill="white" class="classText"><tspan x="5">string targetPropertyName discriminator</tspan><tspan x="5" dy="10">string _type discriminator</tspan></text><line x1="0" y1="61" y2="61" x2="389.453125"></line><text x="5" y="76" fill="white" class="classText"></text></g><g id="classId17" class="classGroup" transform="translate(2807.69921875,362 )"><rect x="0" y="0" width="283.84375" height="59"></rect><text x="5" y="15">ContractualRulesAttribution</text><line x1="0" y1="28" y2="28" x2="283.84375"></line><text x="5" y="38" fill="white" class="classText"><tspan x="5">boolean mustBeCloseToContent</tspan></text><line x1="0" y1="51" y2="51" x2="283.84375"></line><text x="5" y="66" fill="white" class="classText"></text></g><g id="classId18" class="classGroup" transform="translate(1443.4453125,654 )"><rect x="0" y="0" width="159.015625" height="41"></rect><text x="5" y="15">StructuredValue</text><line x1="0" y1="28" y2="28" x2="159.015625"></line><text x="5" y="38" fill="white" class="classText"></text><line x1="0" y1="33" y2="33" x2="159.015625"></line><text x="5" y="48" fill="white" class="classText"></text></g><g id="classId19" class="classGroup" transform="translate(1016.265625,774 )"><rect x="0" y="0" width="322.640625" height="159"></rect><text x="5" y="15">PostalAddress</text><line x1="0" y1="28" y2="28" x2="322.640625"></line><text x="5" y="38" fill="white" class="classText"><tspan x="5">string streetAddress</tspan><tspan x="5" dy="10">string addressLocality</tspan><tspan x="5" dy="10">string addressSubregion</tspan><tspan x="5" dy="10">string addressRegion</tspan><tspan x="5" dy="10">string postalCode</tspan><tspan x="5" dy="10">string postOfficeBoxNumber</tspan><tspan x="5" dy="10">string addressCountry</tspan><tspan x="5" dy="10">string countryIso</tspan><tspan x="5" dy="10">string neighborhood</tspan><tspan x="5" dy="10">string addressRegionAbbreviation</tspan><tspan x="5" dy="10">string text</tspan></text><line x1="0" y1="151" y2="151" x2="322.640625"></line><text x="5" y="166" fill="white" class="classText"></text></g><g id="classId20" class="classGroup" transform="translate(1652.4609375,654 )"><rect x="0" y="0" width="82.203125" height="41"></rect><text x="5" y="15">License</text><line x1="0" y1="28" y2="28" x2="82.203125"></line><text x="5" y="38" fill="white" class="classText"></text><line x1="0" y1="33" y2="33" x2="82.203125"></line><text x="5" y="48" fill="white" class="classText"></text></g><g id="classId21" class="classGroup" transform="translate(2194.171875,501 )"><rect x="0" y="0" width="341.84375" height="69"></rect><text x="5" y="15">ContractualRulesLicenseAttribution</text><line x1="0" y1="28" y2="28" x2="341.84375"></line><text x="5" y="38" fill="white" class="classText"><tspan x="5">License license</tspan><tspan x="5" dy="10">string licenseNotice</tspan></text><line x1="0" y1="61" y2="61" x2="341.84375"></line><text x="5" y="76" fill="white" class="classText"></text></g><g id="classId22" class="classGroup" transform="translate(2586.015625,496 )"><rect x="0" y="0" width="313.046875" height="79"></rect><text x="5" y="15">ContractualRulesLinkAttribution</text><line x1="0" y1="28" y2="28" x2="313.046875"></line><text x="5" y="38" fill="white" class="classText"><tspan x="5">string text</tspan><tspan x="5" dy="10">string url</tspan><tspan x="5" dy="10">boolean optionalForListDisplay</tspan></text><line x1="0" y1="71" y2="71" x2="313.046875"></line><text x="5" y="86" fill="white" class="classText"></text></g><g id="classId23" class="classGroup" transform="translate(2949.0625,506 )"><rect x="0" y="0" width="322.640625" height="59"></rect><text x="5" y="15">ContractualRulesMediaAttribution</text><line x1="0" y1="28" y2="28" x2="322.640625"></line><text x="5" y="38" fill="white" class="classText"><tspan x="5">string url</tspan></text><line x1="0" y1="51" y2="51" x2="322.640625"></line><text x="5" y="66" fill="white" class="classText"></text></g><g id="classId24" class="classGroup" transform="translate(3321.703125,501 )"><rect x="0" y="0" width="1023.15625" height="69"></rect><text x="5" y="15">ContractualRulesTextAttribution</text><line x1="0" y1="28" y2="28" x2="1023.15625"></line><text x="5" y="38" fill="white" class="classText"><tspan x="5">string text</tspan><tspan x="5" dy="10">boolean optionalForListDisplay&lt;/string&gt;&lt;/thing&gt;&lt;/error&gt;&lt;/thing&gt;&lt;/thing&gt;&lt;/contractualrulescontractualrule&gt;</tspan></text><line x1="0" y1="61" y2="61" x2="1023.15625"></line><text x="5" y="76" fill="white" class="classText"></text></g><g id="classId25" class="classGroup" transform="translate(257.03125,625 )"><rect x="0" y="0" width="303.4375" height="99"></rect><text x="5" y="15">QueryContext</text><line x1="0" y1="28" y2="28" x2="303.4375"></line><text x="5" y="38" fill="white" class="classText"><tspan x="5">string originalQuery</tspan><tspan x="5" dy="10">string alteredQuery</tspan><tspan x="5" dy="10">string alterationOverrideQuery</tspan><tspan x="5" dy="10">boolean adultIntent</tspan><tspan x="5" dy="10">boolean askUserForLocation</tspan></text><line x1="0" y1="91" y2="91" x2="303.4375"></line><text x="5" y="106" fill="white" class="classText"></text></g><g id="classId26" class="classGroup" transform="translate(1841.125,496 )"><rect x="0" y="0" width="303.046875" height="79"></rect><text x="5" y="15">EntitiesEntityPresentationInfo</text><line x1="0" y1="28" y2="28" x2="303.046875"></line><text x="5" y="38" fill="white" class="classText"><tspan x="5">string entityScenario</tspan><tspan x="5" dy="10">Array&lt;string&gt; entityTypeHints</tspan><tspan x="5" dy="10">string entityTypeDisplayHint</tspan></text><line x1="0" y1="71" y2="71" x2="303.046875"></line><text x="5" y="86" fill="white" class="classText"></text></g><path d="M405.7648700105042,287L376.39194896708676,291.16666666666663C347.0190279236694,295.3333333333333,288.2731858368347,303.66666666666663,258.90026479341736,321.0833333333333C229.52734375,338.5,229.52734375,365,229.52734374999997,391.5C229.52734375,418,229.52734375,444.5,229.52734374999997,461.91666666666663C229.52734375,479.3333333333333,229.52734375,487.66666666666663,229.52734374999997,491.83333333333326L229.52734375,496" id="edge0" class="relation" marker-start="url(#extensionStart)"></path><g class="classLabel"><rect class="box" x="203.015625" y="415.75" width="53" height="23"></rect><text class="label" x="229.52734375" y="431.25" fill="red" text-anchor="middle">allOf</text></g><path d="M648.97265625,168L648.97265625,172.16666666666666C648.97265625,176.33333333333331,648.97265625,184.66666666666666,648.97265625,193C648.97265625,201.33333333333331,648.97265625,209.66666666666663,648.97265625,213.83333333333331L648.97265625,218" id="edge1" class="relation" marker-start="url(#extensionStart)"></path><g class="classLabel"><rect class="box" x="622.46875" y="190" width="53" height="23"></rect><text class="label" x="648.97265625" y="205.5" fill="red" text-anchor="middle">allOf</text></g><path d="M469.3770288275194,565L456.4880188145994,570.8333333333333C443.59900880167953,576.6666666666666,417.82098877583974,588.3333333333333,374.0966923045865,602.1285770051762C330.37239583333326,615.9238206770192,268.70182291666663,631.8476413540383,237.86653645833331,639.8095516925479L207.03125,647.7714620310575" id="edge2" class="relation" marker-start="url(#extensionStart)"></path><g class="classLabel"><rect class="box" x="273.03125" y="608.375" width="53" height="23"></rect><text class="label" x="299.537109375" y="623.8857310155288" fill="red" text-anchor="middle">allOf</text></g><path d="M529.620488129845,565L528.6440265665374,570.8333333333333C527.6675650032299,576.6666666666666,525.7146418766149,588.3333333333333,542.921511898878,601.6666666666666C560.1283819211409,615,596.4950450922818,630,614.6783766778523,637.5L632.8617082634228,645" id="edge3" class="relation" marker-start="url(#extensionStart)"></path><g class="classLabel"><rect class="box" x="551.796875" y="607" width="53" height="23"></rect><text class="label" x="578.3117135067114" y="622.5" fill="red" text-anchor="middle">allOf</text></g><path d="M534.55859375,412L534.55859375,421.83333333333326C534.55859375,431.66666666666663,534.55859375,451.3333333333333,534.55859375,466.99999999999994C534.55859375,482.66666666666663,534.55859375,494.3333333333333,534.55859375,500.16666666666663L534.55859375,506" id="edge4" class="relation" marker-start="url(#extensionStart)"></path><g class="classLabel"><rect class="box" x="508.046875" y="473" width="53" height="23"></rect><text class="label" x="534.55859375" y="488.5" fill="red" text-anchor="middle">allOf</text></g><path d="M648.97265625,59L648.97265625,63.16666666666666C648.97265625,67.33333333333333,648.97265625,75.66666666666666,648.97265625,84C648.97265625,92.33333333333333,648.97265625,100.66666666666666,648.97265625,104.83333333333331L648.97265625,109" id="edge5" class="relation" marker-start="url(#extensionStart)"></path><g class="classLabel"><rect class="box" x="622.46875" y="81" width="53" height="23"></rect><text class="label" x="648.97265625" y="96.5" fill="red" text-anchor="middle">allOf</text></g><path d="M582.6317292542017,287L574.6195400035014,291.16666666666663C566.607350752801,295.3333333333333,550.5829722514005,303.66666666666663,542.5707830007003,317.66666666666663C534.55859375,331.66666666666663,534.55859375,351.3333333333333,534.55859375,361.16666666666663L534.55859375,371" id="edge6" class="relation" marker-start="url(#extensionStart)"></path><g class="classLabel"><rect class="box" x="508.046875" y="326" width="53" height="23"></rect><text class="label" x="534.55859375" y="341.5" fill="red" text-anchor="middle">allOf</text></g><path d="M689.9096966911765,287L694.8537837009804,291.16666666666663C699.7978707107843,295.3333333333333,709.6860447303922,303.66666666666663,714.6301317401961,316.16666666666663C719.57421875,328.66666666666663,719.57421875,345.3333333333333,719.57421875,353.66666666666663L719.57421875,362" id="edge7" class="relation" marker-start="url(#extensionStart)"></path><g class="classLabel"><rect class="box" x="693.0625" y="321.5" width="53" height="23"></rect><text class="label" x="719.57421875" y="337" fill="red" text-anchor="middle">allOf</text></g><path d="M920.51171875,273.5310018000061L1003.2929687499999,279.94250150000505C1086.07421875,286.35400120000406,1251.63671875,299.17700060000203,1334.41796875,309.7551669666677C1417.19921875,320.3333333333333,1417.19921875,328.66666666666663,1417.19921875,332.8333333333333L1417.19921875,337" id="edge8" class="relation" marker-start="url(#extensionStart)"></path><g class="classLabel"><rect class="box" x="1390.6875" y="309" width="53" height="23"></rect><text class="label" x="1417.19921875" y="324.5" fill="red" text-anchor="middle">allOf</text></g><path d="M1268.484375,719L1268.484375,724C1268.484375,729,1268.484375,739,1305.3900269138755,756.5C1342.295678827751,774,1416.1069826555022,798.9999999999999,1453.0126345693777,811.5L1489.9182864832535,824" id="edge9" class="relation" marker-start="url(#extensionStart)"></path><g class="classLabel"><rect class="box" x="1352.6875" y="771" width="53" height="23"></rect><text class="label" x="1379.2013307416269" y="786.5" fill="red" text-anchor="middle">allOf</text></g><path d="M1155.26171875,439.1752580085496L1126.1197916666665,444.4793816737913C1096.9778645833333,449.783505339033,1038.6940104166665,460.3917526695165,1009.5520833333333,476.4458763347583C980.4101562499999,492.5,980.4101562499999,514,980.4101562499998,535.5C980.4101562499999,557,980.4101562499999,578.5,980.4101562499998,595.9166666666666C980.4101562499999,613.3333333333333,980.4101562499999,626.6666666666666,980.4101562499998,633.3333333333333L980.41015625,640" id="edge10" class="relation" marker-start="url(#extensionStart)"></path><g class="classLabel"><rect class="box" x="953.90625" y="552.25" width="53" height="23"></rect><text class="label" x="980.41015625" y="567.75" fill="red" text-anchor="middle">allOf</text></g><path d="M1186.5275402908806,446L1168.8920908674004,450.16666666666663C1151.2566414439202,454.3333333333333,1115.98574259696,462.66666666666663,1098.3502931734802,474.16666666666663C1080.71484375,485.66666666666663,1080.71484375,500.3333333333333,1080.71484375,507.66666666666663L1080.71484375,515" id="edge11" class="relation" marker-start="url(#extensionStart)"></path><g class="classLabel"><rect class="box" x="1054.203125" y="477.5" width="53" height="23"></rect><text class="label" x="1080.71484375" y="493" fill="red" text-anchor="middle">allOf</text></g><path d="M1365.6127407625786,446L1361.6688204271488,450.16666666666663C1357.724900091719,454.3333333333333,1349.8370594208595,462.66666666666663,1345.8931390854298,471C1341.94921875,479.3333333333333,1341.94921875,487.66666666666663,1341.94921875,491.83333333333326L1341.94921875,496" id="edge12" class="relation" marker-start="url(#extensionStart)"></path><g class="classLabel"><rect class="box" x="1315.4375" y="468" width="53" height="23"></rect><text class="label" x="1341.94921875" y="483.5" fill="red" text-anchor="middle">allOf</text></g><path d="M1568.2337362421383,446L1579.7807177017817,450.16666666666663C1591.3276991614252,454.3333333333333,1614.4216620807126,462.66666666666663,1625.9686435403562,474.16666666666663C1637.515625,485.66666666666663,1637.515625,500.3333333333333,1637.5156249999998,507.66666666666663L1637.515625,515" id="edge13" class="relation" marker-start="url(#extensionStart)"></path><g class="classLabel"><rect class="box" x="1611" y="477.5" width="53" height="23"></rect><text class="label" x="1637.515625" y="493" fill="red" text-anchor="middle">allOf</text></g><path d="M2949.62109375,287L2949.62109375,291.16666666666663C2949.62109375,295.3333333333333,2949.62109375,303.66666666666663,2949.62109375,316.16666666666663C2949.62109375,328.66666666666663,2949.62109375,345.3333333333333,2949.62109375,353.66666666666663L2949.62109375,362" id="edge14" class="relation" marker-start="url(#extensionStart)"></path><g class="classLabel"><rect class="box" x="2923.109375" y="321.5" width="53" height="23"></rect><text class="label" x="2949.62109375" y="337" fill="red" text-anchor="middle">allOf</text></g><path d="M1296.9591206395348,575L1292.2133296996124,579.1666666666666C1287.46753875969,583.3333333333333,1277.975956879845,591.6666666666666,1273.2301659399225,600.8333333333333C1268.484375,610,1268.484375,620,1268.484375,625L1268.484375,630" id="edge15" class="relation" marker-start="url(#extensionStart)"></path><g class="classLabel"><rect class="box" x="1241.96875" y="599.5" width="53" height="23"></rect><text class="label" x="1268.484375" y="615" fill="red" text-anchor="middle">allOf</text></g><path d="M1522.953125,695L1522.9531249999998,704C1522.953125,713,1522.953125,731,1492.2786458333333,749.281377006658C1461.6041666666665,767.5627540133162,1400.2552083333333,786.1255080266322,1369.5807291666667,795.4068850332903L1338.90625,804.6882620399484" id="edge16" class="relation" marker-start="url(#extensionStart)"></path><g class="classLabel"><rect class="box" x="1404.421875" y="761.34375" width="53" height="23"></rect><text class="label" x="1430.9296875" y="776.8441310199742" fill="red" text-anchor="middle">allOf</text></g><path d="M1450.26171875,574.6039006471926L1461.9856770833333,578.8365838726605C1473.7096354166665,583.0692670981284,1497.1575520833333,591.5346335490642,1530.857421875,605.2332829270116C1564.5572916666665,618.9319323049589,1608.5091145833333,637.8638646099178,1630.4850260416667,647.3298307623973L1652.4609375,656.7957969148767" id="edge17" class="relation" marker-start="url(#extensionStart)"></path><g class="classLabel"><rect class="box" x="1560.015625" y="612.890625" width="53" height="23"></rect><text class="label" x="1586.533203125" y="628.3978984574384" fill="red" text-anchor="middle">allOf</text></g><path d="M1637.515625,556L1637.5156249999998,563.3333333333333C1637.515625,570.6666666666666,1637.515625,585.3333333333333,1623.6758598993288,601.6666666666666C1609.8360947986575,618,1582.156564597315,636,1568.3167994966439,645L1554.477034395973,654" id="edge18" class="relation" marker-start="url(#extensionStart)"></path><g class="classLabel"><rect class="box" x="1569.484375" y="611.5" width="53" height="23"></rect><text class="label" x="1595.9963296979865" y="627" fill="red" text-anchor="middle">allOf</text></g><path d="M2807.69921875,410.8024144775092L2733.9316406249995,420.8353453979243C2660.1640625,430.86827631833944,2512.62890625,450.9341381591697,2438.8613281249995,465.96706907958486C2365.09375,481,2365.09375,491,2365.0937499999995,496L2365.09375,501" id="edge19" class="relation" marker-start="url(#extensionStart)"></path><g class="classLabel"><rect class="box" x="2338.578125" y="470.5" width="53" height="23"></rect><text class="label" x="2365.09375" y="486" fill="red" text-anchor="middle">allOf</text></g><path d="M2872.779333726415,421L2851.072621855346,429.33333333333326C2829.3659099842766,437.66666666666663,2785.9524862421385,454.3333333333333,2764.2457743710693,466.83333333333326C2742.5390625,479.3333333333333,2742.5390625,487.66666666666663,2742.5390625,491.83333333333326L2742.5390625,496" id="edge20" class="relation" marker-start="url(#extensionStart)"></path><g class="classLabel"><rect class="box" x="2716.03125" y="468" width="53" height="23"></rect><text class="label" x="2742.5390625" y="483.5" fill="red" text-anchor="middle">allOf</text></g><path d="M3009.2748132861634,421L3026.126146488469,429.33333333333326C3042.9774796907755,437.66666666666663,3076.6801460953875,454.3333333333333,3093.5314792976937,468.49999999999994C3110.3828125,482.66666666666663,3110.3828125,494.3333333333333,3110.3828124999995,500.16666666666663L3110.3828125,506" id="edge21" class="relation" marker-start="url(#extensionStart)"></path><g class="classLabel"><rect class="box" x="3083.875" y="473" width="53" height="23"></rect><text class="label" x="3110.3828125" y="488.5" fill="red" text-anchor="middle">allOf</text></g><path d="M3091.54296875,404.2682446500484L3215.166015624999,415.3902038750403C3338.7890624999995,426.51216310003224,3586.0351562499995,448.7560815500161,3709.658203124999,464.87804077500806C3833.2812499999995,481,3833.2812499999995,491,3833.281249999999,496L3833.28125,501" id="edge22" class="relation" marker-start="url(#extensionStart)"></path><g class="classLabel"><rect class="box" x="3806.765625" y="470.5" width="53" height="23"></rect><text class="label" x="3833.28125" y="486" fill="red" text-anchor="middle">allOf</text></g><path d="M217.27928173449612,575L215.98729207041345,579.1666666666666C214.69530240633074,583.3333333333333,212.11132307816536,591.6666666666666,221.96154013947415,600C231.81175720078295,608.3333333333333,254.09617065156596,616.6666666666666,265.2383773769575,620.8333333333333L276.38058410234896,625" id="edge23" class="relation" marker-end="url(#dependencyEnd)"></path><path d="M237.97898498062017,575L238.87050831718346,579.1666666666666C239.76203165374676,583.3333333333333,241.54507832687338,591.6666666666666,229.9254159811101,602.5C218.30575363534675,613.3333333333333,193.2833822706935,626.6666666666666,180.77219658836688,633.3333333333333L168.26101090604027,640" id="edge24" class="relation" marker-end="url(#dependencyEnd)"></path><path d="M316.8043544089147,575L326.0107901324289,579.1666666666666C335.2172258559431,583.3333333333333,353.63009730297154,591.6666666666666,402.57416323481914,604.7412434325744C451.51822916666663,617.8158201984822,530.9934895833333,635.6316403969644,570.7311197916666,644.5395504962055L610.46875,653.4474605954466" id="edge25" class="relation" marker-end="url(#dependencyEnd)"></path><path d="M545.4906734496124,565L547.6523841246769,570.8333333333333C549.8140947997415,576.6666666666666,554.1375161498707,588.3333333333333,547.9261318864566,598.3333333333333C541.7147476230425,608.3333333333333,524.968557746085,616.6666666666666,516.5954628076062,620.8333333333333L508.22236786912754,625" id="edge26" class="relation" marker-end="url(#dependencyEnd)"></path><path d="M1679.13671875,445.0424295686235L1700.3014322916663,449.3686913071863C1721.466145833333,453.694953045749,1763.7955729166665,462.3474765228745,1784.9602864583333,477.4237382614373C1806.125,492.5,1806.125,514,1806.1249999999998,535.5C1806.125,557,1806.125,578.5,1806.1249999999998,601.6666666666666C1806.125,624.8333333333333,1806.125,649.6666666666666,1806.1249999999998,674.5C1806.125,699.3333333333333,1806.125,724.1666666666666,1778.7195723684208,749.0833333333333C1751.314144736842,774,1696.5032894736842,798.9999999999999,1669.097861842105,811.5L1641.6924342105262,824" id="edge27" class="relation" marker-end="url(#dependencyEnd)"></path><path d="M1679.13671875,427.68743508807654L1731.3886718749995,434.90619590673043C1783.6406249999998,442.1249567253843,1888.1445312499998,456.56247836269216,1940.3964843749995,467.94790584801274C1992.6484374999998,479.3333333333333,1992.6484374999998,487.66666666666663,1992.6484374999995,491.83333333333326L1992.6484375,496" id="edge28" class="relation" marker-end="url(#dependencyEnd)"></path><path d="M1685.328125,829.2286754233264L1689.2170138888887,828.3572295194385C1693.1059027777776,827.4857836155509,1700.8836805555552,825.7428918077753,1705.7447916666665,824.8714459038877C1710.6059027777776,823.9999999999999,1712.5503472222222,823.9999999999999,1714.4947916666665,828.9166666666665C1716.439236111111,833.8333333333333,1718.3836805555554,843.6666666666666,1718.3836805555552,853.4999999999999C1718.3836805555554,863.3333333333333,1716.439236111111,873.1666666666666,1714.4947916666665,878.0833333333333C1712.5503472222222,883,1710.6059027777776,883,1705.7447916666663,882.1285540961121C1700.8836805555552,881.2571081922245,1693.1059027777776,879.5142163844489,1689.2170138888887,878.6427704805612L1685.328125,877.7713245766736" id="edge29" class="relation" marker-end="url(#dependencyEnd)"></path><path d="M980.41015625,709L980.4101562499998,715.6666666666666C980.4101562499999,722.3333333333333,980.4101562499999,735.6666666666666,988.2720295055819,746.5C996.1339027611641,757.3333333333333,1011.8576492723284,765.6666666666666,1019.7195225279106,769.8333333333334L1027.5813957834928,774" id="edge30" class="relation" marker-end="url(#dependencyEnd)"></path><path d="M2365.09375,570L2365.0937499999995,575C2365.09375,580,2365.09375,590,2260.0221354166665,606.656695479858C2154.950520833333,623.3133909597158,1944.8072916666665,646.6267819194316,1839.7356770833333,658.2834773992895L1734.6640625,669.9401728791474" id="edge31" class="relation" marker-end="url(#dependencyEnd)"></path></svg>